<mxfile host="app.diagrams.net" modified="2022-04-29T09:58:06.335Z" agent="5.0 (Windows NT 10.0; Win64; x64) AppleWebKit/537.36 (KHTML, like Gecko) Chrome/100.0.4896.127 Safari/537.36" etag="aGLt_y2HYVwnufWXz8K3" version="17.5.0" type="github">
  <diagram id="fPdl14Pba0S37FqoG8v8" name="Page-1">
    <mxGraphModel dx="1076" dy="469" grid="1" gridSize="10" guides="1" tooltips="1" connect="1" arrows="1" fold="1" page="1" pageScale="1" pageWidth="827" pageHeight="1169" math="0" shadow="0">
      <root>
        <mxCell id="0" />
        <mxCell id="1" parent="0" />
        <mxCell id="FrrBJr6luwqR7iXKgFfq-11" value="" style="edgeStyle=orthogonalEdgeStyle;rounded=0;orthogonalLoop=1;jettySize=auto;html=1;" edge="1" parent="1" source="FrrBJr6luwqR7iXKgFfq-1" target="FrrBJr6luwqR7iXKgFfq-2">
          <mxGeometry relative="1" as="geometry" />
        </mxCell>
        <mxCell id="FrrBJr6luwqR7iXKgFfq-1" value="x.py" style="shape=parallelogram;html=1;strokeWidth=2;perimeter=parallelogramPerimeter;whiteSpace=wrap;rounded=1;arcSize=12;size=0.23;" vertex="1" parent="1">
          <mxGeometry x="106" y="385" width="100" height="60" as="geometry" />
        </mxCell>
        <mxCell id="FrrBJr6luwqR7iXKgFfq-12" value="" style="edgeStyle=orthogonalEdgeStyle;rounded=0;orthogonalLoop=1;jettySize=auto;html=1;" edge="1" parent="1" source="FrrBJr6luwqR7iXKgFfq-2" target="FrrBJr6luwqR7iXKgFfq-3">
          <mxGeometry relative="1" as="geometry" />
        </mxCell>
        <mxCell id="FrrBJr6luwqR7iXKgFfq-15" style="edgeStyle=orthogonalEdgeStyle;rounded=0;orthogonalLoop=1;jettySize=auto;html=1;exitX=1;exitY=0.5;exitDx=0;exitDy=0;exitPerimeter=0;entryX=0;entryY=0.5;entryDx=0;entryDy=0;entryPerimeter=0;" edge="1" parent="1" source="FrrBJr6luwqR7iXKgFfq-2" target="FrrBJr6luwqR7iXKgFfq-4">
          <mxGeometry relative="1" as="geometry">
            <Array as="points">
              <mxPoint x="310" y="545" />
              <mxPoint x="310" y="415" />
            </Array>
          </mxGeometry>
        </mxCell>
        <mxCell id="FrrBJr6luwqR7iXKgFfq-2" value="x程序中有没有使用外部程序&lt;br&gt;import y?" style="strokeWidth=2;html=1;shape=mxgraph.flowchart.decision;whiteSpace=wrap;" vertex="1" parent="1">
          <mxGeometry x="41" y="495" width="230" height="100" as="geometry" />
        </mxCell>
        <mxCell id="FrrBJr6luwqR7iXKgFfq-13" value="" style="edgeStyle=orthogonalEdgeStyle;rounded=0;orthogonalLoop=1;jettySize=auto;html=1;" edge="1" parent="1" source="FrrBJr6luwqR7iXKgFfq-3" target="FrrBJr6luwqR7iXKgFfq-10">
          <mxGeometry relative="1" as="geometry" />
        </mxCell>
        <mxCell id="FrrBJr6luwqR7iXKgFfq-3" value="编译源码x，生成中间字节码" style="rounded=0;whiteSpace=wrap;html=1;" vertex="1" parent="1">
          <mxGeometry x="96" y="635" width="120" height="60" as="geometry" />
        </mxCell>
        <mxCell id="FrrBJr6luwqR7iXKgFfq-16" value="" style="edgeStyle=orthogonalEdgeStyle;rounded=0;orthogonalLoop=1;jettySize=auto;html=1;" edge="1" parent="1" source="FrrBJr6luwqR7iXKgFfq-4" target="FrrBJr6luwqR7iXKgFfq-5">
          <mxGeometry relative="1" as="geometry" />
        </mxCell>
        <mxCell id="FrrBJr6luwqR7iXKgFfq-19" style="edgeStyle=orthogonalEdgeStyle;rounded=0;orthogonalLoop=1;jettySize=auto;html=1;exitX=1;exitY=0.5;exitDx=0;exitDy=0;exitPerimeter=0;entryX=1;entryY=0.75;entryDx=0;entryDy=0;" edge="1" parent="1" source="FrrBJr6luwqR7iXKgFfq-4" target="FrrBJr6luwqR7iXKgFfq-6">
          <mxGeometry relative="1" as="geometry">
            <Array as="points">
              <mxPoint x="716" y="415" />
              <mxPoint x="716" y="680" />
            </Array>
          </mxGeometry>
        </mxCell>
        <mxCell id="FrrBJr6luwqR7iXKgFfq-4" value="是否编译，有无y.pyc?" style="strokeWidth=2;html=1;shape=mxgraph.flowchart.decision;whiteSpace=wrap;" vertex="1" parent="1">
          <mxGeometry x="476" y="365" width="160" height="100" as="geometry" />
        </mxCell>
        <mxCell id="FrrBJr6luwqR7iXKgFfq-17" value="" style="edgeStyle=orthogonalEdgeStyle;rounded=0;orthogonalLoop=1;jettySize=auto;html=1;" edge="1" parent="1" source="FrrBJr6luwqR7iXKgFfq-5" target="FrrBJr6luwqR7iXKgFfq-6">
          <mxGeometry relative="1" as="geometry" />
        </mxCell>
        <mxCell id="FrrBJr6luwqR7iXKgFfq-21" style="edgeStyle=orthogonalEdgeStyle;rounded=0;orthogonalLoop=1;jettySize=auto;html=1;exitX=0;exitY=0.5;exitDx=0;exitDy=0;exitPerimeter=0;entryX=0.5;entryY=0;entryDx=0;entryDy=0;" edge="1" parent="1" source="FrrBJr6luwqR7iXKgFfq-5" target="FrrBJr6luwqR7iXKgFfq-7">
          <mxGeometry relative="1" as="geometry" />
        </mxCell>
        <mxCell id="FrrBJr6luwqR7iXKgFfq-5" value="y.pyc文件存储的.py源码修改时间&lt;br&gt;是否等于真实y.py修改时间?" style="strokeWidth=2;html=1;shape=mxgraph.flowchart.decision;whiteSpace=wrap;" vertex="1" parent="1">
          <mxGeometry x="426" y="495" width="260" height="100" as="geometry" />
        </mxCell>
        <mxCell id="FrrBJr6luwqR7iXKgFfq-18" value="" style="edgeStyle=orthogonalEdgeStyle;rounded=0;orthogonalLoop=1;jettySize=auto;html=1;" edge="1" parent="1" source="FrrBJr6luwqR7iXKgFfq-6" target="FrrBJr6luwqR7iXKgFfq-8">
          <mxGeometry relative="1" as="geometry" />
        </mxCell>
        <mxCell id="FrrBJr6luwqR7iXKgFfq-6" value="编译源码y，生成中间字节码" style="rounded=0;whiteSpace=wrap;html=1;" vertex="1" parent="1">
          <mxGeometry x="496" y="635" width="120" height="60" as="geometry" />
        </mxCell>
        <mxCell id="FrrBJr6luwqR7iXKgFfq-14" value="" style="edgeStyle=orthogonalEdgeStyle;rounded=0;orthogonalLoop=1;jettySize=auto;html=1;" edge="1" parent="1" source="FrrBJr6luwqR7iXKgFfq-7" target="FrrBJr6luwqR7iXKgFfq-10">
          <mxGeometry relative="1" as="geometry" />
        </mxCell>
        <mxCell id="FrrBJr6luwqR7iXKgFfq-7" value="根据y的中间字节码&lt;br&gt;解释执行" style="rounded=0;whiteSpace=wrap;html=1;" vertex="1" parent="1">
          <mxGeometry x="286" y="745" width="120" height="60" as="geometry" />
        </mxCell>
        <mxCell id="FrrBJr6luwqR7iXKgFfq-20" value="" style="edgeStyle=orthogonalEdgeStyle;rounded=0;orthogonalLoop=1;jettySize=auto;html=1;" edge="1" parent="1" source="FrrBJr6luwqR7iXKgFfq-8" target="FrrBJr6luwqR7iXKgFfq-7">
          <mxGeometry relative="1" as="geometry" />
        </mxCell>
        <mxCell id="FrrBJr6luwqR7iXKgFfq-8" value="存储编译结果到y.pyc，记录源码最后写改时间" style="rounded=0;whiteSpace=wrap;html=1;" vertex="1" parent="1">
          <mxGeometry x="496" y="745" width="120" height="60" as="geometry" />
        </mxCell>
        <mxCell id="FrrBJr6luwqR7iXKgFfq-10" value="根据x的中间字节码&lt;br&gt;解释执行" style="rounded=0;whiteSpace=wrap;html=1;" vertex="1" parent="1">
          <mxGeometry x="96" y="745" width="120" height="60" as="geometry" />
        </mxCell>
        <mxCell id="FrrBJr6luwqR7iXKgFfq-22" value="否" style="text;html=1;strokeColor=none;fillColor=none;align=center;verticalAlign=middle;whiteSpace=wrap;rounded=0;" vertex="1" parent="1">
          <mxGeometry x="196" y="595" width="60" height="30" as="geometry" />
        </mxCell>
        <mxCell id="FrrBJr6luwqR7iXKgFfq-23" value="否" style="text;html=1;strokeColor=none;fillColor=none;align=center;verticalAlign=middle;whiteSpace=wrap;rounded=0;" vertex="1" parent="1">
          <mxGeometry x="476" y="595" width="60" height="30" as="geometry" />
        </mxCell>
        <mxCell id="FrrBJr6luwqR7iXKgFfq-24" value="否" style="text;html=1;strokeColor=none;fillColor=none;align=center;verticalAlign=middle;whiteSpace=wrap;rounded=0;" vertex="1" parent="1">
          <mxGeometry x="726" y="525" width="60" height="30" as="geometry" />
        </mxCell>
        <mxCell id="FrrBJr6luwqR7iXKgFfq-25" value="是" style="text;html=1;strokeColor=none;fillColor=none;align=center;verticalAlign=middle;whiteSpace=wrap;rounded=0;" vertex="1" parent="1">
          <mxGeometry x="366" y="435" width="60" height="30" as="geometry" />
        </mxCell>
        <mxCell id="FrrBJr6luwqR7iXKgFfq-26" value="是" style="text;html=1;strokeColor=none;fillColor=none;align=center;verticalAlign=middle;whiteSpace=wrap;rounded=0;" vertex="1" parent="1">
          <mxGeometry x="460" y="465" width="60" height="30" as="geometry" />
        </mxCell>
        <mxCell id="FrrBJr6luwqR7iXKgFfq-27" value="是" style="text;html=1;strokeColor=none;fillColor=none;align=center;verticalAlign=middle;whiteSpace=wrap;rounded=0;" vertex="1" parent="1">
          <mxGeometry x="350" y="635" width="60" height="30" as="geometry" />
        </mxCell>
      </root>
    </mxGraphModel>
  </diagram>
</mxfile>
